<?xml version="1.0" encoding="utf-8"?>
<!-- Generator: Adobe Illustrator 18.1.1, SVG Export Plug-In . SVG Version: 6.00 Build 0)  -->
<svg version="1.1" id="Layer_1" xmlns="http://www.w3.org/2000/svg" xmlns:xlink="http://www.w3.org/1999/xlink" x="0px" y="0px"
	 viewBox="0 0 539.9 120.2" enable-background="new 0 0 539.9 120.2" xml:space="preserve">
<g>
	<rect x="6.8" y="9.2" fill="#9CA4BE" width="13.2" height="104.2"/>
	<rect x="28.8" y="9.2" fill="#9CA4BE" width="31.9" height="104.2"/>
	<rect x="78.2" y="9.2" fill="#9CA4BE" width="13.2" height="104.2"/>
	<rect x="105.6" y="9.2" fill="#9CA4BE" width="47" height="104.2"/>
	<rect x="157.8" y="9.2" fill="#9CA4BE" width="13.2" height="104.2"/>
	<rect x="178.8" y="9.2" fill="#9CA4BE" width="36.7" height="104.2"/>
	<rect x="219.6" y="9.2" fill="#9CA4BE" width="21.8" height="104.2"/>
	<rect x="248.1" y="9.2" fill="#9CA4BE" width="13.2" height="104.2"/>
	<rect x="274.8" y="9.2" fill="#9CA4BE" width="31.9" height="104.2"/>
	<rect x="324" y="9.2" fill="#9CA4BE" width="22.4" height="104.2"/>
	<rect x="358.6" y="9.2" fill="#9CA4BE" width="47" height="104.2"/>
	<rect x="417.8" y="9.2" fill="#9CA4BE" width="13.2" height="104.2"/>
	<rect x="437.8" y="9.2" fill="#9CA4BE" width="36.7" height="104.2"/>
	<rect x="482.6" y="9.2" fill="#9CA4BE" width="21.8" height="104.2"/>
	<rect x="519.1" y="9.2" fill="#9CA4BE" width="13.2" height="104.2"/>
</g>
</svg>
