<?xml version="1.0" encoding="utf-8"?>
<!-- Generator: Adobe Illustrator 18.1.1, SVG Export Plug-In . SVG Version: 6.00 Build 0)  -->
<svg version="1.1" id="Layer_1" xmlns="http://www.w3.org/2000/svg" xmlns:xlink="http://www.w3.org/1999/xlink" x="0px" y="0px"
	 viewBox="0 0 100 100" enable-background="new 0 0 100 100" xml:space="preserve">
<path fill="#8CC63F" d="M69.2,36.7c-0.3,0.5-0.6,1-1,1.4C61.2,45,54.3,52,47.3,58.9c-1.3,1.3-2.2,1.3-3.5,0c-4-4-8-8-12-12
	c-0.4-0.4-0.7-0.9-1-1.4c0-0.2,0-0.5,0-0.7c0.9-1,1.7-2.1,2.7-2.9c0.7-0.6,1.7-0.4,2.5,0.4c2.4,2.4,4.8,4.8,7.2,7.2
	c0.8,0.8,1.5,1.6,2.3,2.4c0.3-0.2,0.4-0.4,0.6-0.6c5.6-5.6,11.1-11.1,16.7-16.7c2.5-2.5,3.1-2.5,5.5,0.1c0.4,0.4,0.6,0.9,0.9,1.3
	C69.2,36.2,69.2,36.4,69.2,36.7z"/>
</svg>
