<?xml version="1.0" encoding="utf-8"?>
<!-- Generator: Adobe Illustrator 18.1.1, SVG Export Plug-In . SVG Version: 6.00 Build 0)  -->
<svg version="1.1" id="Layer_1" xmlns="http://www.w3.org/2000/svg" xmlns:xlink="http://www.w3.org/1999/xlink" x="0px" y="0px"
	 viewBox="0 0 72 72" enable-background="new 0 0 72 72" xml:space="preserve">
<g>
	<path fill="#C93341" d="M44.9,25.4c0.4,0.1,0.9,0.2,1.2,0.5c1.7,1,2,3.3,0.6,4.7c-0.2,0.2-0.4,0.2-0.6,0c-0.4-0.4-0.9-0.9-1.3-1.3
		c-0.1-0.1-0.1-0.1-0.1-0.2c-0.3,0.3-0.5,0.5-0.7,0.7c2.2,2.4,3.2,5.2,2.7,8.4c-0.4,3.2-2.2,5.7-4.9,7.4c0.3,0.3,0.7,0.7,1,1
		c0.1,0.1,0.1,0.1,0.2,0.2c0.1,0.2,0.1,0.4,0,0.5c-0.1,0.1-0.4,0.1-0.5,0c-0.2-0.2-0.4-0.4-0.6-0.6c-0.2-0.2-0.4-0.4-0.6-0.6
		c-0.1-0.1-0.2-0.1-0.3-0.1c-1,0.5-2,0.8-3,0.9c-1.9,0.2-3.7,0-5.4-0.8c-0.3-0.1-0.3-0.1-0.6,0.1c-0.3,0.3-0.7,0.7-1,1
		c-0.1,0.1-0.3,0.2-0.5,0.1c-0.3-0.1-0.3-0.4-0.1-0.6c0.3-0.3,0.6-0.6,0.9-0.9c0.1-0.1,0.1-0.1,0.2-0.2c-2.8-1.8-4.5-4.2-4.9-7.4
		c-0.4-3.2,0.5-6,2.7-8.4c-0.2-0.2-0.4-0.4-0.6-0.6c-0.2,0.2-0.4,0.4-0.6,0.6c-0.3,0.3-0.6,0.6-0.9,0.9c-0.2,0.2-0.5,0.2-0.7,0
		c-0.8-0.9-1-2-0.6-3.1c0.4-1.1,1.2-1.8,2.4-2c0,0,0.1,0,0.1,0c0.2,0,0.5,0,0.7,0c0,0,0.1,0,0.1,0c0.6,0.1,1.2,0.3,1.6,0.8
		c0.3,0.3,0.3,0.4,0,0.7c-0.4,0.4-0.9,0.9-1.3,1.3c-0.1,0.1-0.2,0.2-0.3,0.3c0.2,0.2,0.4,0.4,0.6,0.7c1.9-1.7,4.2-2.6,6.8-2.6
		c2.6,0,4.8,0.9,6.7,2.6c0.2-0.2,0.4-0.4,0.6-0.6c0,0-0.1-0.1-0.1-0.1c-0.5-0.5-1-1-1.5-1.5c-0.2-0.2-0.2-0.4,0-0.7
		c0.2-0.1,0.3-0.3,0.5-0.4c0.4-0.3,0.8-0.4,1.3-0.4C44.4,25.4,44.6,25.4,44.9,25.4z M36.6,27.4c-5.2,0-9.4,4.2-9.4,9.4
		c0,5.2,4.2,9.4,9.4,9.4c5.2,0,9.4-4.2,9.4-9.4C46.1,31.6,41.8,27.4,36.6,27.4z M46.4,29.8c0.6-0.9,0.5-2.2-0.3-2.9
		c-0.8-0.8-2.1-0.9-2.9-0.3C44.3,27.6,45.3,28.7,46.4,29.8z M26.9,29.8c1.1-1.1,2.1-2.1,3.2-3.2c-0.9-0.6-2.2-0.5-2.9,0.3
		C26.4,27.7,26.3,28.9,26.9,29.8z"/>
	<path fill="#C93341" d="M37,35.3c0.5,0.2,0.9,0.5,1,1c0,0.1,0.1,0.1,0.2,0.1c0.8,0,1.6,0,2.3,0c0.1,0,0.2,0,0.2,0
		c0.2,0,0.3,0.2,0.3,0.4c0,0.2-0.1,0.3-0.3,0.4c-0.1,0-0.1,0-0.2,0c-0.8,0-1.5,0-2.3,0c-0.2,0-0.2,0-0.3,0.2c-0.3,0.7-0.9,1-1.6,0.9
		c-0.6-0.1-1.2-0.7-1.2-1.3c-0.1-0.7,0.3-1.3,0.9-1.6c0.1-0.1,0.2-0.1,0.2-0.3c0-1.1,0-2.3,0-3.4c0-0.1,0-0.2,0-0.3
		c0-0.2,0.2-0.3,0.4-0.3c0.2,0,0.3,0.1,0.4,0.3c0,0.1,0,0.2,0,0.3c0,1.1,0,2.3,0,3.4C37,35.1,37,35.2,37,35.3z M36.7,36
		c-0.4,0-0.7,0.3-0.8,0.7c0,0.4,0.3,0.8,0.8,0.8c0.4,0,0.7-0.3,0.7-0.7C37.4,36.4,37.1,36,36.7,36z"/>
	<path fill="#C93341" d="M36.3,28.6C36.3,28.6,36.3,28.6,36.3,28.6c0-0.4,0.2-0.6,0.4-0.5c0.2,0,0.4,0.2,0.4,0.5c0,0.1,0,0.2,0,0.3
		c0,0.2-0.2,0.3-0.4,0.3c-0.2,0-0.3-0.1-0.4-0.4C36.3,28.8,36.3,28.7,36.3,28.6C36.3,28.6,36.3,28.6,36.3,28.6z"/>
	<path fill="#C93341" d="M37,44.8c0,0,0,0.1,0,0.1c0,0.2-0.2,0.4-0.4,0.4c-0.2,0-0.4-0.2-0.4-0.4c0-0.1,0-0.3,0-0.4
		c0-0.2,0.2-0.3,0.4-0.3c0.2,0,0.3,0.1,0.4,0.3C37,44.7,37,44.8,37,44.8C37,44.8,37,44.8,37,44.8z"/>
	<path fill="#C93341" d="M31.4,42.2c0,0.3-0.4,0.7-0.6,0.7c-0.1,0-0.3-0.1-0.3-0.2c-0.1-0.1,0-0.3,0-0.4c0.1-0.1,0.2-0.3,0.4-0.4
		c0.1-0.1,0.3-0.1,0.4,0C31.3,42.1,31.4,42.2,31.4,42.2z"/>
	<path fill="#C93341" d="M42.2,41.9c0.2,0,0.6,0.4,0.6,0.6c0,0.3-0.3,0.5-0.5,0.3c-0.2-0.1-0.3-0.3-0.4-0.4
		C41.8,42.3,42,41.9,42.2,41.9z"/>
	<path fill="#C93341" d="M42.9,30.9c0,0.2-0.4,0.7-0.7,0.6c-0.3,0-0.4-0.3-0.3-0.5c0.1-0.2,0.2-0.3,0.4-0.4
		C42.6,30.4,42.9,30.6,42.9,30.9z"/>
	<path fill="#C93341" d="M30.7,30.5c0.3,0,0.7,0.4,0.7,0.6c0,0.1-0.1,0.3-0.2,0.3c-0.1,0.1-0.3,0.1-0.4,0c-0.2-0.1-0.3-0.2-0.4-0.4
		c-0.1-0.1,0-0.3,0-0.4C30.5,30.6,30.7,30.5,30.7,30.5z"/>
	<path fill="#C93341" d="M28.5,37.1c-0.1,0-0.2,0-0.3,0c-0.2,0-0.3-0.2-0.3-0.4c0-0.2,0.1-0.3,0.3-0.4c0.2,0,0.3,0,0.5,0
		c0.2,0,0.4,0.2,0.4,0.4c0,0.2-0.2,0.3-0.4,0.4C28.7,37.1,28.6,37.1,28.5,37.1C28.5,37.1,28.5,37.1,28.5,37.1z"/>
	<path fill="#C93341" d="M44.7,37.1c-0.4,0-0.6-0.1-0.6-0.4c0-0.3,0.2-0.4,0.6-0.4c0.1,0,0.1,0,0.2,0c0.2,0,0.4,0.2,0.4,0.4
		c0,0.2-0.1,0.3-0.4,0.4C44.9,37.1,44.8,37.1,44.7,37.1z"/>
</g>
</svg>
