<?xml version="1.0" encoding="utf-8"?>
<!-- Generator: Adobe Illustrator 18.1.1, SVG Export Plug-In . SVG Version: 6.00 Build 0)  -->
<svg version="1.1" id="Layer_1" xmlns="http://www.w3.org/2000/svg" xmlns:xlink="http://www.w3.org/1999/xlink" x="0px" y="0px"
	 viewBox="0 0 100 100" enable-background="new 0 0 100 100" xml:space="preserve">
<path fill="#9CA4BE" d="M30.9,41.4c0,0,0.1,0,0.1,0c2.8-2.9,2.3-2.8,5.2,0.1c4.2,4.2,8.4,8.4,12.5,12.5c0.4,0.4,0.8,0.7,1.4,1.3
	c1.2-1.2,2.3-2.5,3.4-3.6c3.7-3.7,7.4-7.5,11.2-11.2c1.7-1.7,1.7-1.7,3.4,0c0.3,0.3,0.6,0.6,1,0.9c0,0.3,0,0.6,0,0.9
	c-5.6,5.6-11.3,11.2-16.9,16.8c-2.2,2.2-2.2,2.2-4.5,0c-5.6-5.6-11.3-11.2-16.9-16.8C30.9,42,30.9,41.7,30.9,41.4z"/>
</svg>
