<?xml version="1.0" encoding="iso-8859-1"?>
<!-- Generator: Adobe Illustrator 16.0.0, SVG Export Plug-In . SVG Version: 6.00 Build 0)  -->
<!DOCTYPE svg PUBLIC "-//W3C//DTD SVG 1.1//EN" "http://www.w3.org/Graphics/SVG/1.1/DTD/svg11.dtd">
<svg xmlns="http://www.w3.org/2000/svg" xmlns:xlink="http://www.w3.org/1999/xlink" version="1.1" id="Capa_1" x="0px" y="0px" width="512px" height="512px" viewBox="0 0 557.254 557.254" style="enable-background:new 0 0 557.254 557.254;" xml:space="preserve">
<g>
	<path d="M278.627,536.097c2.271,0,4.662-0.479,6.693-1.554c1.914-0.956,46.02-23.429,98.613-63.352   c71.242-54.028,121.324-111.643,148.938-171.05c0,0,0-0.119,0.119-0.119c0.357-0.837,8.725-19.364,12.67-32.154   c7.77-25.58,11.594-49.367,11.594-72.436c0-96.103-74.945-174.276-167.104-174.276c-41.238,0-81.043,16.017-111.523,44.585   c-30.48-28.448-70.404-44.585-111.522-44.585C74.946,21.157,0,99.33,0,195.433c0,24.146,3.945,48.53,11.714,72.675   c0.239,0.837,6.694,20.56,12.79,32.394c27.612,59.406,77.695,116.781,148.816,170.81c52.713,39.924,96.82,62.515,98.613,63.352   C273.966,535.5,276.356,536.097,278.627,536.097z M167.105,50.8c37.891,0,74.468,16.734,100.406,45.9   c2.869,3.228,6.933,5.021,11.236,5.021c4.304,0,8.366-1.793,11.235-5.021c26.297-29.644,61.918-45.9,100.406-45.9   c75.664,0,137.223,64.786,137.223,144.394c0,18.408-2.869,37.414-8.607,57.854c-1.434-0.479-3.107-0.717-4.66-0.717H369.352   c-5.977,0-11.475,3.586-13.746,9.204l-31.557,74.707l-77.097-183.839c-2.271-5.499-7.77-9.204-13.746-9.204l0,0   c-5.977,0-11.475,3.586-13.746,9.204l-41.358,98.494H37.652c-5.259-18.647-7.889-37.293-7.889-55.702   C29.763,115.586,91.322,50.8,167.105,50.8z M51.279,287.353c-0.119-0.239-0.239-0.359-0.239-0.598   c-0.837-1.674-1.793-3.825-2.75-5.977h139.732c5.977,0,11.475-3.586,13.746-9.204l31.437-74.827l77.097,183.839   c2.271,5.498,7.77,9.203,13.746,9.203l0,0c5.977,0,11.475-3.586,13.746-9.203l41.357-98.494h128.975   c-1.195,2.869-2.15,4.9-2.271,5.26c-31.795,68.252-93.354,124.432-139.492,159.454c-38.848,29.524-73.631,49.605-87.736,57.256   c-14.224-7.77-48.888-27.731-87.736-57.256C144.752,411.904,83.074,355.724,51.279,287.353z" fill="#c1272d"/>
</g>
<g>
</g>
<g>
</g>
<g>
</g>
<g>
</g>
<g>
</g>
<g>
</g>
<g>
</g>
<g>
</g>
<g>
</g>
<g>
</g>
<g>
</g>
<g>
</g>
<g>
</g>
<g>
</g>
<g>
</g>
</svg>
