<?xml version="1.0" encoding="utf-8"?>
<!-- Generator: Adobe Illustrator 18.1.1, SVG Export Plug-In . SVG Version: 6.00 Build 0)  -->
<svg version="1.1" id="Layer_1" xmlns="http://www.w3.org/2000/svg" xmlns:xlink="http://www.w3.org/1999/xlink" x="0px" y="0px"
	 viewBox="0 0 72 72" enable-background="new 0 0 72 72" xml:space="preserve">
<g>
	<path fill="#C93341" d="M21.8,40.6c0-0.5,0.1-1,0.1-1.5c0-1.7,1.2-2.9,2.8-3c1.9-0.1,3.8-0.2,5.6-0.3c2.8,0,5.6,0,8.4,0
		c1.3,0,2.4,0.5,2.8,1.8c0.2,0.7,0.3,1.4,0.4,2.1c0.1,2.6,0.2,5.3,0.2,7.9c0,1.1,0,1.2-1.3,1.4C40,49,39.1,49,38.2,49
		c0,0-0.1,0-0.1,0.1c0,0.1,0,0.1,0,0.2c0.1,1.1,0,1.1-1,1.1c-3.2,0-6.4-0.1-9.6-0.1c-0.9,0-1.1-0.2-1.1-1.1c0-0.2,0-0.4,0-0.7
		c-1,0-2,0-3,0c-1.3,0-1.4-0.1-1.5-1.3c0-0.2-0.1-0.3-0.1-0.5C21.8,44.7,21.8,42.6,21.8,40.6z M26.3,47.3c0-0.5,0-0.8,0-1.2
		c0-1.4,0-2.8,0-4.2c0-0.4,0.1-0.7,0.6-0.7c0.5,0,0.7,0.3,0.7,0.7c0,0.2,0,0.3,0,0.5c0,2,0,4.1,0,6.1c0,0.2,0,0.4,0,0.7
		c3.1,0,6,0,9,0c0-1,0-2,0-3c0-1.5-0.1-2.9-0.2-4.4c0-0.4,0.1-0.7,0.6-0.7c0.4,0,0.7,0.2,0.7,0.7c0,0.1,0,0.2,0,0.2
		c0.1,1.8,0.1,3.6,0.2,5.3c0,0.2,0,0.3,0,0.5c1,0,1.9,0,2.8,0c0-0.2,0-0.3,0-0.5c-0.1-2.7-0.2-5.4-0.3-8.2c-0.1-1.5-0.6-2-2.1-2
		c-1.7,0-3.4,0-5.1,0c-2.8,0.1-5.6,0.2-8.4,0.3c-0.9,0-1.7,0.7-1.7,1.5c0,2.6,0,5.1-0.1,7.7c0,0.3,0,0.5,0,0.8
		C24.2,47.3,25.2,47.3,26.3,47.3z"/>
	<path fill="#C93341" d="M51.3,38.4c-0.1-2.3-0.2-4.4-0.3-6.6c0-0.6-0.4-0.8-0.9-0.8c-2.9,0-5.8,0-8.7,0.1c-0.5,0-1,0.1-1.5,0.1
		c-0.8,0.1-1.2,0.5-1.2,1.3c0,0.8,0,1.6,0,2.4c-0.5,0-0.9,0-1.3,0c0-1.1-0.1-2.1,0-3.1c0.1-0.9,1.1-1.7,2-1.8
		c2.4-0.1,4.8-0.2,7.1-0.2c1.1,0,2.2,0,3.3,0c1.5,0,2.4,0.9,2.5,2.4c0.1,2.2,0.1,4.4,0.2,6.6c0,0.6-0.2,1-0.8,1
		c-0.7,0.1-1.4,0.1-2.1,0.1c-0.1,0.9-0.2,1-1.1,1c-1.8,0-3.6,0-5.5,0c0-0.4-0.1-0.8-0.1-1.2c1.8,0,3.5,0,5.1,0c0-1.5,0-2.9,0-4.4
		c0-0.3,0-0.6,0-0.9c0-0.4,0.2-0.7,0.6-0.7c0.4,0,0.7,0.3,0.7,0.7c0,1,0.1,1.9,0.1,2.9c0,0.4,0,0.9,0,1.3
		C50.1,38.4,50.6,38.4,51.3,38.4z"/>
	<path fill="#C93341" d="M31.4,34.3c-1.4,0-2.9-0.8-3.9-2.4c-1-1.6-0.7-3.3,0.3-4.9c1.3-2.2,4.8-3.2,7.3-1.6
		c2.4,1.5,2.6,5.2,0.6,7.2C34.6,33.7,33.4,34.3,31.4,34.3z M32.2,26.1c-2.1,0-3.8,1.6-3.8,3.5c0,1.7,1.7,3.2,3.6,3.2
		c2,0,3.7-1.6,3.7-3.4C35.6,27.5,34.1,26.1,32.2,26.1z"/>
	<path fill="#C93341" d="M44.7,28.8c-2-0.1-3.7-1.6-3.6-3.5c0.1-2.2,1.7-3.7,4.1-3.7c2.3,0,3.5,1.9,3.5,3.6
		C48.7,27.5,46.4,28.9,44.7,28.8z M45,22.8c-1.4,0-2.7,1.2-2.7,2.5c0,1.2,1.2,2.3,2.6,2.3c1.4,0,2.6-1.1,2.6-2.5
		C47.5,23.8,46.4,22.8,45,22.8z"/>
	<path fill="#C93341" d="M41.8,36.1c-0.3-0.3-0.5-0.5-0.8-0.7c-0.6-0.3-0.6-0.9-0.4-1.4c0.1-0.2,0.4-0.5,0.6-0.5
		c0.2,0,0.6,0.3,0.6,0.5C41.9,34.8,41.8,35.4,41.8,36.1z"/>
</g>
</svg>
